<svg id="Layer_1" data-name="Layer 1" xmlns="http://www.w3.org/2000/svg" viewBox="0 0 32.61 32.56"><defs><style>.cls-1{fill:#e3e3e3;}</style></defs><title>ICONS</title><path class="cls-1" d="M17.67,29.55c.16-1.14,1.44-1.88,1.7-3,.41-1.79-1.34-1.88-2.45-2.88-1.38-1.24-.44-2-1-3.55s-2-1.58-3.32-2.09c-2-.82-1.9-1.41-2.25-3.22-.43-2.16-1-1.06-2.69-1.73A4.55,4.55,0,0,1,5.24,9.47c.12-1.31,1.33-2,0-3.22-1.53-1.46-2.48.77-3.18,2A16,16,0,0,0,.2,13.71,16.3,16.3,0,0,0,18.28,32.45a7,7,0,0,1-.61-2.9"/><path class="cls-1" d="M26.07,9.5c-.75-.59.2-1.82.15-3.12,0-.66-1.14-.89-1.18-1.95-.05-1.68.43-1.73-1.23-2.59a16.2,16.2,0,0,0-16.58.9A11.92,11.92,0,0,0,13.18,4c1.43-.12,2.7-.76,4.18-.57a8,8,0,0,1,4.7,2.49c1,1.35.24,1,.08,2.08-.07.41.22,1.34,0,1.67s-1.54.77-1.8,1c-.7.67-.63,1.9-1.28,2.59-1,1.13-1.14.31-2.19,0-1.33-.36-2.93-.05-2.36,1.75s3.3,2.66,4.78,2.18c2.37-.76,4.37-1.78,5.82.92a6.86,6.86,0,0,0,.75,1.42c.38.39,1.08.46,1.34.73,1.48,1.53.09,1.53-.81,2.54s-1.09,2.44-1.77,3.53c-1.21,1.92-3.22,3.51-4.06,5.63A16.41,16.41,0,0,0,31.6,21.82c1.86-5.18.64-9.8.28-10.23C30.13,9,27,10.94,26.07,9.5"/></svg>