<svg id="Layer_1" data-name="Layer 1" xmlns="http://www.w3.org/2000/svg" viewBox="0 0 32.57 25.99"><defs><style>.cls-1{fill:#e3e3e3;}</style></defs><title>ICONS</title><path class="cls-1" d="M15.7,18.39l-14-8.27a1.15,1.15,0,0,0-1.74,1V24.83A1.16,1.16,0,0,0,1.15,26H31.41a1.16,1.16,0,0,0,1.16-1.16V11a1.15,1.15,0,0,0-1.75-1L16.88,18.39a1.14,1.14,0,0,1-1.18,0"/><path class="cls-1" d="M16.87,15.26,32,6.21a1.13,1.13,0,0,0,.56-1V1.15A1.15,1.15,0,0,0,31.42,0H1.15A1.15,1.15,0,0,0,0,1.15V5.3a1.17,1.17,0,0,0,.56,1l15.13,9a1.14,1.14,0,0,0,1.18,0"/></svg>