<svg id="Layer_1" data-name="Layer 1" xmlns="http://www.w3.org/2000/svg" viewBox="0 0 311.27 194.35"><defs><style>.cls-1{fill:#e3e3e3}</style></defs><path class="cls-1" d="M191.86 61.8c-7 0-11.59 3.41-13.3 9.64h26.24c-1.95-7.08-7.44-9.64-12.94-9.64z"/><path class="cls-1" d="M.1 0v131.21h242.35l7.73-25.71-24.3-58.23H246l13.56 37.35 11.47-37.35h19.53l-27.95 83.94h48.64V0zm87 80.72C87.07 99 72.9 110 54.1 110s-33-11-33-29.3V22.85h19.58V79c0 6.47 3 12 13.42 12s13.43-5.49 13.43-12V22.85h19.54zm63.78 24.54h-48.36v-82.4h18.86V87.1h29.47zm71.41-20.15h-43.37c2.32 6.35 7.94 8.55 14.65 8.55A16 16 0 0 0 205.29 89l14.65 8.42c-6 8.3-15 12.58-26.61 12.58-20.88 0-33.82-14-33.82-32.23S172.7 45.56 192 45.56c17.82 0 31 13.79 31 32.23a35.36 35.36 0 0 1-.74 7.32zM11.64 164.69v2.55c-4.57 0-8.88 2.82-8.88 9.63v14.78H.1v-26.59h2.66v5.21c1.81-4.2 5.24-5.58 8.88-5.58zm64.85 13.77v1.28H52.34c.64 6 5.22 9.95 11.28 9.95 4.36 0 7.66-2 9.2-4.84l2.34 1.38c-2.18 3.62-6.33 6-11.59 6-8.19 0-14-5.85-14-13.88 0-7.82 5.64-13.89 13.77-13.89s13.15 6.72 13.15 14zm-24.15-1.33h21.39c-.59-6.49-5.16-10.1-10.38-10.1a10.72 10.72 0 0 0-11.01 10.1zm89.09-2.02v16.54h-2.71v-16.54c0-4.89-2.82-8.08-7.82-8.08-5.21 0-9.31 3.4-9.31 10.58v14h-2.66v-26.55h2.66v5.05a10 10 0 0 1 9.52-5.64c6.33 0 10.32 4.21 10.32 10.64zm48.36-7.44V185c0 4.68 2.5 4.79 7.92 4.31v2.39c-7 1.07-10.64-.63-10.64-6.7v-17.33h-5.85v-2.61h5.85v-6.65l2.72-.8v7.45h7.92v2.61zm74.38-2.61v26.59h-2.71v-6a12.78 12.78 0 0 1-11.43 6.6 13.89 13.89 0 0 1 0-27.77 12.78 12.78 0 0 1 11.43 6.6v-6zm-2.71 13.3a11.25 11.25 0 1 0-11.22 11.33 11.15 11.15 0 0 0 11.22-11.33zm47.01-25.53h2.66v38.82h-2.66z"/></svg>