<svg id="Layer_1" data-name="Layer 1" xmlns="http://www.w3.org/2000/svg" viewBox="0 0 311.27 194.35"><defs><style>.cls-1{fill:#0d71b9;}</style></defs><title>uley_LOGO</title><path class="cls-1" d="M191.86,61.8c-7,0-11.59,3.41-13.3,9.64H204.8C202.85,64.36,197.36,61.8,191.86,61.8Z"/><path class="cls-1" d="M.1,0V131.21H242.45l7.73-25.71-24.3-58.23H246l13.56,37.35,11.47-37.35h19.53l-27.95,83.94h48.64V0Zm87,80.72C87.07,99,72.9,110,54.1,110s-33-11-33-29.3V22.85H40.68V79c0,6.47,3,12,13.42,12s13.43-5.49,13.43-12V22.85H87.07Zm63.78,24.54H102.52V22.86h18.86V87.1h29.47Zm71.41-20.15H178.92c2.32,6.35,7.94,8.55,14.65,8.55A16,16,0,0,0,205.29,89l14.65,8.42c-6,8.3-15,12.58-26.61,12.58-20.88,0-33.82-14-33.82-32.23S172.7,45.56,192,45.56c17.82,0,31,13.79,31,32.23A35.36,35.36,0,0,1,222.26,85.11Z"/><path class="cls-1" d="M11.64,164.69v2.55c-4.57,0-8.88,2.82-8.88,9.63v14.78H.1V165.06H2.76v5.21C4.57,166.07,8,164.69,11.64,164.69Z"/><path class="cls-1" d="M76.49,178.46c0,.43,0,.85,0,1.28H52.34c.64,6,5.22,9.95,11.28,9.95,4.36,0,7.66-2,9.2-4.84l2.34,1.38c-2.18,3.62-6.33,6-11.59,6-8.19,0-14-5.85-14-13.88,0-7.82,5.64-13.89,13.77-13.89S76.49,171.18,76.49,178.46Zm-24.15-1.33H73.73c-.59-6.49-5.16-10.1-10.38-10.1A10.72,10.72,0,0,0,52.34,177.13Z"/><path class="cls-1" d="M141.43,175.11v16.54h-2.71V175.11c0-4.89-2.82-8.08-7.82-8.08-5.21,0-9.31,3.4-9.31,10.58v14h-2.66V165.06h2.66v5.05a10,10,0,0,1,9.52-5.64C137.44,164.47,141.43,168.68,141.43,175.11Z"/><path class="cls-1" d="M189.79,167.67V185c0,4.68,2.5,4.79,7.92,4.31v2.39c-7,1.07-10.64-.63-10.64-6.7V167.67h-5.85v-2.61h5.85v-6.65l2.72-.8v7.45h7.92v2.61Z"/><path class="cls-1" d="M264.17,165.06v26.59h-2.71v-6a12.78,12.78,0,0,1-11.43,6.6,13.89,13.89,0,0,1,0-27.77,12.78,12.78,0,0,1,11.43,6.6v-6Zm-2.71,13.3a11.25,11.25,0,1,0-11.22,11.33A11.15,11.15,0,0,0,261.46,178.36Z"/><path class="cls-1" d="M308.47,152.83h2.66v38.82h-2.66Z"/></svg>