<?xml version="1.0" encoding="utf-8"?>
<!-- Generator: Adobe Illustrator 21.1.0, SVG Export Plug-In . SVG Version: 6.00 Build 0)  -->
<svg version="1.1" id="Layer_1" xmlns="http://www.w3.org/2000/svg" xmlns:xlink="http://www.w3.org/1999/xlink" x="0px" y="0px"
	 viewBox="0 0 85 62.4" style="enable-background:new 0 0 85 62.4;" xml:space="preserve">
<style type="text/css">
	.st0{fill:#EC5F61;}
	.st1{fill:#43778E;}
	.st2{fill:none;stroke:#EC5F61;stroke-width:1.5;stroke-linecap:round;stroke-linejoin:round;stroke-miterlimit:10;}
	.st3{fill:#FFFFFF;}
	.st4{fill:#61A9BA;}
	.st5{opacity:0.13;}
	.st6{fill:#EC6170;}
	.st7{fill:#744152;}
	.st8{fill:#305066;}
	.st9{fill:#213443;}
	.st10{fill:#F5EAC8;}
	.st11{clip-path:url(#SVGID_2_);}
	.st12{fill:none;stroke:#000000;stroke-width:8.5445;stroke-miterlimit:10;}
	.st13{fill:none;stroke:#000000;stroke-width:9;stroke-miterlimit:10;}
	.st14{fill:none;stroke:#000000;stroke-width:9;stroke-linecap:round;stroke-linejoin:round;stroke-miterlimit:10;}
	.st15{fill:none;stroke:#000000;stroke-width:15;stroke-miterlimit:10;}
	.st16{fill:none;stroke:#EC5F61;stroke-width:8.544;stroke-linecap:round;stroke-linejoin:round;stroke-miterlimit:10;}
	.st17{fill:none;stroke:#000000;stroke-width:6;stroke-linecap:round;stroke-linejoin:round;stroke-miterlimit:10;}
	.st18{fill:none;stroke:#43778E;stroke-width:6;stroke-linecap:round;stroke-linejoin:round;stroke-miterlimit:10;}
	.st19{fill:none;stroke:#43778E;stroke-width:6;stroke-miterlimit:10;}
	.st20{fill:none;stroke:#61A9BA;stroke-width:6;stroke-miterlimit:10;}
	.st21{fill:none;stroke:#EC6170;stroke-width:6;stroke-linecap:round;stroke-linejoin:round;stroke-miterlimit:10;}
	.st22{fill:none;stroke:#61A9BA;stroke-width:6;stroke-linecap:round;stroke-linejoin:round;stroke-miterlimit:10;}
	.st23{fill:none;stroke:#EC6070;stroke-width:6;stroke-linecap:round;stroke-linejoin:round;stroke-miterlimit:10;}
	.st24{fill:none;stroke:#62AABB;stroke-width:6;stroke-miterlimit:10;}
	.st25{fill:none;}
	.st26{fill:none;stroke:#EC6170;stroke-width:9;stroke-linecap:round;stroke-linejoin:round;stroke-dasharray:0,15.7514;}
	.st27{fill:none;stroke:#EC6070;stroke-width:2;stroke-miterlimit:10;}
	.st28{fill:#C6C6C6;}
	.st29{fill:#FFFFFF;stroke:#FFFFFF;stroke-width:4;stroke-miterlimit:10;}
	.st30{fill:none;stroke:#FFFFFF;stroke-width:5;stroke-miterlimit:10;}
	.st31{fill:none;stroke:#FFFFFF;stroke-width:10;stroke-linecap:round;stroke-linejoin:round;stroke-miterlimit:10;}
	.st32{fill:none;stroke:#EC6170;stroke-width:12;stroke-miterlimit:10;}
	.st33{fill:none;stroke:#FFFFFF;stroke-width:10;stroke-miterlimit:10;}
	.st34{fill:none;stroke:#EC5F61;stroke-width:4;stroke-miterlimit:10;}
	.st35{fill:none;stroke:#EC5F61;stroke-width:12;stroke-miterlimit:10;}
	.st36{fill:#45778E;}
	.st37{fill:none;stroke:#FFFFFF;stroke-width:12;stroke-linecap:round;stroke-linejoin:round;stroke-dasharray:0,19.4173;}
	.st38{fill:#EC6170;stroke:#FFFFFF;stroke-width:10;stroke-miterlimit:10;}
	.st39{fill:#EC6070;}
	.st40{fill:none;stroke:#EC6170;stroke-width:6;stroke-miterlimit:10;}
	.st41{fill:none;stroke:#FFFFFF;stroke-width:6;stroke-miterlimit:10;}
	.st42{fill:none;stroke:#EC6170;stroke-width:10;stroke-miterlimit:10;}
	.st43{fill:none;stroke:#43778E;stroke-width:1.5;stroke-linecap:round;stroke-linejoin:round;stroke-miterlimit:10;}
	.st44{fill:#EC5F61;stroke:#FFFFFF;stroke-width:1.5;stroke-miterlimit:10;}
	.st45{fill:#020203;}
	.st46{clip-path:url(#SVGID_4_);fill:#020203;}
	.st47{clip-path:url(#SVGID_6_);fill:#020203;}
</style>
<g>
	<path class="st1" d="M43,11.8c10.1,0,18.3,8.2,18.3,18.3c0,10.1-8.2,18.3-18.3,18.3c-10.1,0-18.3-8.2-18.3-18.3
		C24.7,20,32.9,11.8,43,11.8 M43,10.9c-10.6,0-19.2,8.6-19.2,19.2c0,10.6,8.6,19.2,19.2,19.2s19.2-8.6,19.2-19.2
		C62.2,19.5,53.6,10.9,43,10.9L43,10.9z"/>
	<path class="st1" d="M43,19.7c5.7,0,10.4,4.7,10.4,10.4c0,5.7-4.7,10.4-10.4,10.4s-10.4-4.7-10.4-10.4C32.6,24.4,37.3,19.7,43,19.7
		 M43,18.9c-6.2,0-11.2,5-11.2,11.2c0,6.2,5,11.2,11.2,11.2s11.2-5,11.2-11.2C54.2,23.9,49.2,18.9,43,18.9L43,18.9z"/>
	<circle class="st1" cx="43" cy="30.1" r="8.1"/>
	<g>
		<circle class="st3" cx="41.1" cy="27.4" r="2.1"/>
	</g>
	<circle class="st0" cx="43.2" cy="45.1" r="1.5"/>
	<circle class="st0" cx="43.2" cy="15.1" r="1.5"/>
	<g>
		<circle class="st1" cx="43.2" cy="45.1" r="1.5"/>
		<circle class="st1" cx="43.2" cy="15.1" r="1.5"/>
	</g>
	<circle class="st1" cx="58.2" cy="30.1" r="1.5"/>
	<circle class="st1" cx="28.1" cy="30.1" r="1.5"/>
	<g>
		<ellipse transform="matrix(0.7071 -0.7071 0.7071 0.7071 -13.0385 49.9869)" class="st1" cx="53.8" cy="40.7" rx="1.5" ry="1.5"/>
		<ellipse transform="matrix(0.7071 -0.7071 0.7071 0.7071 -4.2258 28.711)" class="st1" cx="32.5" cy="19.5" rx="1.5" ry="1.5"/>
	</g>
	<g>
		<ellipse transform="matrix(0.7071 -0.7071 0.7071 0.7071 -19.2701 34.9426)" class="st1" cx="32.5" cy="40.7" rx="1.5" ry="1.5"/>
		<ellipse transform="matrix(0.7071 -0.7071 0.7071 0.7071 2.0058 43.7553)" class="st1" cx="53.8" cy="19.5" rx="1.5" ry="1.5"/>
	</g>
	<path class="st0" d="M43,52.8c-12.5,0-22.7-10.2-22.7-22.7C20.3,17.6,30.5,7.4,43,7.4s22.7,10.2,22.7,22.7
		C65.7,42.6,55.5,52.8,43,52.8z M43,8.3c-12,0-21.8,9.8-21.8,21.8c0,12,9.8,21.8,21.8,21.8s21.8-9.8,21.8-21.8
		C64.9,18.1,55.1,8.3,43,8.3z"/>
</g>
</svg>
