<?xml version="1.0" encoding="utf-8"?>
<!-- Generator: Adobe Illustrator 21.1.0, SVG Export Plug-In . SVG Version: 6.00 Build 0)  -->
<svg version="1.1" id="Layer_1" xmlns="http://www.w3.org/2000/svg" xmlns:xlink="http://www.w3.org/1999/xlink" x="0px" y="0px"
	 viewBox="0 0 85 62.4" style="enable-background:new 0 0 85 62.4;" xml:space="preserve">
<style type="text/css">
	.st0{fill:#EC5F61;}
	.st1{fill:#43778E;}
	.st2{fill:none;stroke:#EC5F61;stroke-width:1.5;stroke-linecap:round;stroke-linejoin:round;stroke-miterlimit:10;}
	.st3{fill:#FFFFFF;}
	.st4{fill:#61A9BA;}
	.st5{opacity:0.13;}
	.st6{fill:#EC6170;}
	.st7{fill:#744152;}
	.st8{fill:#305066;}
	.st9{fill:#213443;}
	.st10{fill:#F5EAC8;}
	.st11{clip-path:url(#SVGID_2_);}
	.st12{fill:none;stroke:#000000;stroke-width:8.5445;stroke-miterlimit:10;}
	.st13{fill:none;stroke:#000000;stroke-width:9;stroke-miterlimit:10;}
	.st14{fill:none;stroke:#000000;stroke-width:9;stroke-linecap:round;stroke-linejoin:round;stroke-miterlimit:10;}
	.st15{fill:none;stroke:#000000;stroke-width:15;stroke-miterlimit:10;}
	.st16{fill:none;stroke:#EC5F61;stroke-width:8.544;stroke-linecap:round;stroke-linejoin:round;stroke-miterlimit:10;}
	.st17{fill:none;stroke:#000000;stroke-width:6;stroke-linecap:round;stroke-linejoin:round;stroke-miterlimit:10;}
	.st18{fill:none;stroke:#43778E;stroke-width:6;stroke-linecap:round;stroke-linejoin:round;stroke-miterlimit:10;}
	.st19{fill:none;stroke:#43778E;stroke-width:6;stroke-miterlimit:10;}
	.st20{fill:none;stroke:#61A9BA;stroke-width:6;stroke-miterlimit:10;}
	.st21{fill:none;stroke:#EC6170;stroke-width:6;stroke-linecap:round;stroke-linejoin:round;stroke-miterlimit:10;}
	.st22{fill:none;stroke:#61A9BA;stroke-width:6;stroke-linecap:round;stroke-linejoin:round;stroke-miterlimit:10;}
	.st23{fill:none;stroke:#EC6070;stroke-width:6;stroke-linecap:round;stroke-linejoin:round;stroke-miterlimit:10;}
	.st24{fill:none;stroke:#62AABB;stroke-width:6;stroke-miterlimit:10;}
	.st25{fill:none;}
	.st26{fill:none;stroke:#EC6170;stroke-width:9;stroke-linecap:round;stroke-linejoin:round;stroke-dasharray:0,15.7514;}
	.st27{fill:none;stroke:#EC6070;stroke-width:2;stroke-miterlimit:10;}
	.st28{fill:#C6C6C6;}
	.st29{fill:#FFFFFF;stroke:#FFFFFF;stroke-width:4;stroke-miterlimit:10;}
	.st30{fill:none;stroke:#FFFFFF;stroke-width:5;stroke-miterlimit:10;}
	.st31{fill:none;stroke:#FFFFFF;stroke-width:10;stroke-linecap:round;stroke-linejoin:round;stroke-miterlimit:10;}
	.st32{fill:none;stroke:#EC6170;stroke-width:12;stroke-miterlimit:10;}
	.st33{fill:none;stroke:#FFFFFF;stroke-width:10;stroke-miterlimit:10;}
	.st34{fill:none;stroke:#EC5F61;stroke-width:4;stroke-miterlimit:10;}
	.st35{fill:none;stroke:#EC5F61;stroke-width:12;stroke-miterlimit:10;}
	.st36{fill:#45778E;}
	.st37{fill:none;stroke:#FFFFFF;stroke-width:12;stroke-linecap:round;stroke-linejoin:round;stroke-dasharray:0,19.4173;}
	.st38{fill:#EC6170;stroke:#FFFFFF;stroke-width:10;stroke-miterlimit:10;}
	.st39{fill:#EC6070;}
	.st40{fill:none;stroke:#EC6170;stroke-width:6;stroke-miterlimit:10;}
	.st41{fill:none;stroke:#FFFFFF;stroke-width:6;stroke-miterlimit:10;}
	.st42{fill:none;stroke:#EC6170;stroke-width:10;stroke-miterlimit:10;}
	.st43{fill:none;stroke:#43778E;stroke-width:1.5;stroke-linecap:round;stroke-linejoin:round;stroke-miterlimit:10;}
	.st44{fill:#EC5F61;stroke:#FFFFFF;stroke-width:1.5;stroke-miterlimit:10;}
	.st45{fill:#020203;}
	.st46{clip-path:url(#SVGID_4_);fill:#020203;}
	.st47{clip-path:url(#SVGID_6_);fill:#020203;}
</style>
<g>
	<path class="st0" d="M49.1,25.1l-8.2,3.8c-0.5,0.2-0.9,0.6-1.1,1.1l-3.9,8.4c-0.1,0.3,0.2,0.6,0.5,0.5l8.2-3.8
		c0.6-0.3,1.1-0.8,1.4-1.4l3.7-8C49.8,25.3,49.4,24.9,49.1,25.1z"/>
	<path class="st1" d="M40.7,16.6c-7.2,0.9-12.8,6.8-13.4,14c-0.4,5.1,1.7,9.7,5.2,12.8c0.8,0.7,1.3,1.7,1.3,2.8v3.2
		c0,1.2,1,2.2,2.2,2.2h13.1c1.2,0,2.2-1,2.2-2.2v-2.8c0-1.2,0.5-2.5,1.4-3.3c3.2-2.8,5.1-6.9,5.1-11.4
		C57.8,22.8,49.9,15.5,40.7,16.6z M41.5,44.1c-5.7-0.6-10.3-5.2-10.9-10.9C29.9,25.5,36.3,19,44,19.8c5.7,0.6,10.3,5.2,10.9,10.9
		C55.6,38.4,49.2,44.8,41.5,44.1z"/>
	<path class="st1" d="M36,56.9c0,1.2,1,2.2,2.2,2.2h8.8c1.2,0,2.2-1,2.2-2.2v0c0-1.2-1-2.2-2.2-2.2h-8.8C36.9,54.7,36,55.7,36,56.9
		L36,56.9z"/>
	<path class="st0" d="M24.9,45.8c-0.1,0-0.3-0.1-0.4-0.2c-3.1-4-4.7-8.8-4.7-13.9C19.8,19.3,30,9.1,42.5,9.1
		c12.5,0,22.7,10.2,22.7,22.7c0,5-1.6,9.8-4.6,13.7c-0.2,0.2-0.4,0.2-0.6,0.1c-0.2-0.2-0.2-0.4-0.1-0.6c2.9-3.8,4.4-8.4,4.4-13.2
		c0-12-9.8-21.8-21.8-21.8c-12,0-21.8,9.8-21.8,21.8c0,4.9,1.6,9.5,4.5,13.3c0.2,0.2,0.1,0.5-0.1,0.6C25.1,45.8,25,45.8,24.9,45.8z"
		/>
	<path class="st0" d="M29.5,45.8c-0.1,0-0.2,0-0.3-0.1c-3.8-3.7-5.9-8.6-5.9-13.9c0-10.6,8.6-19.2,19.2-19.2
		c10.6,0,19.2,8.6,19.2,19.2c0,5.3-2.1,10.2-5.9,13.9c-0.2,0.2-0.5,0.2-0.6,0c-0.2-0.2-0.2-0.5,0-0.6c3.6-3.5,5.6-8.2,5.6-13.2
		c0-10.1-8.2-18.3-18.3-18.3s-18.3,8.2-18.3,18.3c0,5,2,9.7,5.6,13.2c0.2,0.2,0.2,0.5,0,0.6C29.8,45.8,29.7,45.8,29.5,45.8z"/>
	<circle class="st3" cx="42.8" cy="31.9" r="1.3"/>
	<path class="st25" d="M49.1,25.1l-8.2,3.8c-0.5,0.2-0.9,0.6-1.1,1.1l-3.9,8.4c-0.1,0.3,0.2,0.6,0.5,0.5l8.2-3.8
		c0.6-0.3,1.1-0.8,1.4-1.4l3.7-8C49.8,25.3,49.4,24.9,49.1,25.1z"/>
</g>
</svg>
