<?xml version="1.0" standalone="no"?>
<!DOCTYPE svg PUBLIC "-//W3C//DTD SVG 20010904//EN"
 "http://www.w3.org/TR/2001/REC-SVG-20010904/DTD/svg10.dtd">
<svg version="1.0" xmlns="http://www.w3.org/2000/svg"
 width="112.000000pt" height="112.000000pt" viewBox="0 0 112.000000 112.000000"
 preserveAspectRatio="xMidYMid meet">
<metadata>
Created by potrace 1.11, written by Peter Selinger 2001-2013
</metadata>
<g transform="translate(0.000000,112.000000) scale(0.100000,-0.100000)"
fill="#000000" stroke="none">
<path d="M532 1111 c-34 -21 -522 -516 -519 -525 2 -7 71 -12 198 -13 238 -1
219 0 219 -21 0 -32 36 -85 71 -104 58 -31 134 -18 162 29 9 15 37 18 37 4 0
-18 -71 -70 -103 -76 -74 -14 -171 42 -184 108 -3 15 -8 28 -12 29 -24 6 -369
4 -381 -3 -11 -5 5 -28 71 -94 l84 -86 65 30 c75 36 130 40 168 12 29 -20 94
-41 129 -41 12 0 34 -5 50 -11 27 -10 28 -11 8 -25 -20 -15 -39 -15 -122 2
-20 4 -33 2 -33 -4 0 -12 83 -27 135 -24 26 2 67 19 116 48 42 24 81 44 87 44
25 0 10 -30 -30 -63 -103 -81 -138 -102 -181 -101 -51 0 -158 15 -207 29 -38
11 -80 15 -80 7 0 -4 58 -65 128 -135 128 -127 153 -142 190 -118 34 21 522
516 519 525 -2 7 -69 12 -193 12 -104 1 -197 2 -206 3 -11 1 -19 13 -23 34
-20 105 -157 145 -226 65 -16 -18 -39 -25 -39 -10 1 13 24 38 52 56 83 54 201
10 234 -86 l11 -33 191 -1 c170 -1 192 1 192 15 0 9 -35 51 -78 94 l-78 78
-54 -27 c-79 -40 -130 -43 -189 -10 -27 14 -76 30 -110 34 -69 10 -76 14 -67
38 6 17 46 16 129 -2 15 -4 27 -2 27 4 0 13 -93 30 -138 26 -20 -2 -69 -23
-110 -49 -156 -95 -129 -23 32 85 60 40 62 41 126 35 36 -4 105 -16 153 -27
49 -11 91 -17 95 -13 4 3 -52 64 -124 136 -131 129 -155 144 -192 120z m93
-483 c15 -14 28 -38 32 -60 5 -32 1 -41 -25 -68 -42 -42 -92 -42 -134 0 -26
27 -30 36 -25 68 8 47 47 82 92 82 21 0 44 -9 60 -22z"/>
<path d="M539 616 c-35 -17 -46 -58 -25 -91 24 -37 83 -33 106 8 13 24 13 30
0 53 -19 34 -50 46 -81 30z m46 -56 c0 -29 -32 -41 -41 -16 -9 24 4 48 23 44
12 -2 18 -12 18 -28z"/>
</g>
</svg>
