<?xml version="1.0" encoding="utf-8"?>
<!-- Generator: Adobe Illustrator 21.1.0, SVG Export Plug-In . SVG Version: 6.00 Build 0)  -->
<svg version="1.1" id="Layer_1" xmlns="http://www.w3.org/2000/svg" xmlns:xlink="http://www.w3.org/1999/xlink" x="0px" y="0px"
	 viewBox="0 0 85 62.4" style="enable-background:new 0 0 85 62.4;" xml:space="preserve">
<style type="text/css">
	.st0{fill:#EC5F61;}
	.st1{fill:#43778E;}
	.st2{fill:none;stroke:#EC5F61;stroke-width:1.5;stroke-linecap:round;stroke-linejoin:round;stroke-miterlimit:10;}
	.st3{fill:#FFFFFF;}
	.st4{fill:#61A9BA;}
	.st5{opacity:0.13;}
	.st6{fill:#EC6170;}
	.st7{fill:#744152;}
	.st8{fill:#305066;}
	.st9{fill:#213443;}
	.st10{fill:#F5EAC8;}
	.st11{clip-path:url(#SVGID_2_);}
	.st12{fill:none;stroke:#000000;stroke-width:8.5445;stroke-miterlimit:10;}
	.st13{fill:none;stroke:#000000;stroke-width:9;stroke-miterlimit:10;}
	.st14{fill:none;stroke:#000000;stroke-width:9;stroke-linecap:round;stroke-linejoin:round;stroke-miterlimit:10;}
	.st15{fill:none;stroke:#000000;stroke-width:15;stroke-miterlimit:10;}
	.st16{fill:none;stroke:#EC5F61;stroke-width:8.544;stroke-linecap:round;stroke-linejoin:round;stroke-miterlimit:10;}
	.st17{fill:none;stroke:#000000;stroke-width:6;stroke-linecap:round;stroke-linejoin:round;stroke-miterlimit:10;}
	.st18{fill:none;stroke:#43778E;stroke-width:6;stroke-linecap:round;stroke-linejoin:round;stroke-miterlimit:10;}
	.st19{fill:none;stroke:#43778E;stroke-width:6;stroke-miterlimit:10;}
	.st20{fill:none;stroke:#61A9BA;stroke-width:6;stroke-miterlimit:10;}
	.st21{fill:none;stroke:#EC6170;stroke-width:6;stroke-linecap:round;stroke-linejoin:round;stroke-miterlimit:10;}
	.st22{fill:none;stroke:#61A9BA;stroke-width:6;stroke-linecap:round;stroke-linejoin:round;stroke-miterlimit:10;}
	.st23{fill:none;stroke:#EC6070;stroke-width:6;stroke-linecap:round;stroke-linejoin:round;stroke-miterlimit:10;}
	.st24{fill:none;stroke:#62AABB;stroke-width:6;stroke-miterlimit:10;}
	.st25{fill:none;}
	.st26{fill:none;stroke:#EC6170;stroke-width:9;stroke-linecap:round;stroke-linejoin:round;stroke-dasharray:0,15.7514;}
	.st27{fill:none;stroke:#EC6070;stroke-width:2;stroke-miterlimit:10;}
	.st28{fill:#C6C6C6;}
	.st29{fill:#FFFFFF;stroke:#FFFFFF;stroke-width:4;stroke-miterlimit:10;}
	.st30{fill:none;stroke:#FFFFFF;stroke-width:5;stroke-miterlimit:10;}
	.st31{fill:none;stroke:#FFFFFF;stroke-width:10;stroke-linecap:round;stroke-linejoin:round;stroke-miterlimit:10;}
	.st32{fill:none;stroke:#EC6170;stroke-width:12;stroke-miterlimit:10;}
	.st33{fill:none;stroke:#FFFFFF;stroke-width:10;stroke-miterlimit:10;}
	.st34{fill:none;stroke:#EC5F61;stroke-width:4;stroke-miterlimit:10;}
	.st35{fill:none;stroke:#EC5F61;stroke-width:12;stroke-miterlimit:10;}
	.st36{fill:#45778E;}
	.st37{fill:none;stroke:#FFFFFF;stroke-width:12;stroke-linecap:round;stroke-linejoin:round;stroke-dasharray:0,19.4173;}
	.st38{fill:#EC6170;stroke:#FFFFFF;stroke-width:10;stroke-miterlimit:10;}
	.st39{fill:#EC6070;}
	.st40{fill:none;stroke:#EC6170;stroke-width:6;stroke-miterlimit:10;}
	.st41{fill:none;stroke:#FFFFFF;stroke-width:6;stroke-miterlimit:10;}
	.st42{fill:none;stroke:#EC6170;stroke-width:10;stroke-miterlimit:10;}
	.st43{fill:none;stroke:#43778E;stroke-width:1.5;stroke-linecap:round;stroke-linejoin:round;stroke-miterlimit:10;}
	.st44{fill:#EC5F61;stroke:#FFFFFF;stroke-width:1.5;stroke-miterlimit:10;}
	.st45{fill:#020203;}
	.st46{clip-path:url(#SVGID_4_);fill:#020203;}
	.st47{clip-path:url(#SVGID_6_);fill:#020203;}
</style>
<g>
	<path class="st0" d="M49.7,7.8l1.1,1.6c0.2,0.3,0,0.8-0.4,0.7c-2.2-0.3-4.4-0.3-6.6,0c-8.7,1.2-16,7-19.2,15.2C23.6,28,23,31,23,34
		c0,0.3,0.3,0.6,0.6,0.6c0.3,0,0.6-0.3,0.6-0.6c0-2.9,0.5-5.7,1.5-8.3c3-7.8,10-13.3,18.3-14.4c2.1-0.3,4.3-0.3,6.4,0
		c0.4,0.1,0.5,0.6,0.2,0.8l-1.8,1.1c0,0-0.5,0.2-0.2,0.7c0.3,0.5,0.7,0.1,0.7,0.1l3.6-2.2c0.4-0.2,0.5-0.7,0.2-1l-2.5-3.5
		c0,0-0.2-0.4-0.7-0.1S49.7,7.8,49.7,7.8z"/>
	<path class="st1" d="M42.5,19.4c4.4,0,7.9,3.5,7.9,7.9s-3.5,7.9-7.9,7.9s-7.9-3.5-7.9-7.9S38.1,19.4,42.5,19.4z"/>
	<path class="st1" d="M43,53.7c-7,0-16.3-2.3-16.3-6.8v0c0-5.3,10.5-8.2,15.8-8.2s15.8,2.9,15.8,8.2v0C58.3,51.7,50,53.7,43,53.7z"
		/>
	<path class="st0" d="M64.2,35.1l1.4-0.4c0.7-0.2,1.5-0.1,2.2,0.3l2.7,1.9c0.7,0.5,0.9,1.4,0.5,2.2l-1.5,2.8c-0.5,1.1-1.9,1.5-2.9,1
		c-2.9-1.4-5.3-3.6-7.1-6.3c-0.9-1.3-1.6-2.8-2.1-4.4c-0.5-1.6-0.8-3.2-0.8-4.8c-0.1-3.4,0.7-6.6,2.3-9.5c0.5-0.9,1.7-1.3,2.6-0.8
		l3,1.5c0.8,0.4,1.2,1.4,0.9,2.2l-1,2.9c-0.3,0.8-0.9,1.4-1.7,1.6l-1,0.3c-0.9,0.3-1.5,1.2-1.4,2.2c0.1,1,0.3,2.1,0.6,3.1
		c0.4,1.2,0.9,2.2,1.5,3.2C62.7,35.1,63.5,35.3,64.2,35.1z"/>
</g>
</svg>
