<?xml version="1.0" encoding="utf-8"?>
<!-- Generator: Adobe Illustrator 21.1.0, SVG Export Plug-In . SVG Version: 6.00 Build 0)  -->
<svg version="1.1" id="Layer_1" xmlns="http://www.w3.org/2000/svg" xmlns:xlink="http://www.w3.org/1999/xlink" x="0px" y="0px"
	 viewBox="0 0 85 62.4" style="enable-background:new 0 0 85 62.4;" xml:space="preserve">
<style type="text/css">
	.st0{fill:#EC5F61;}
	.st1{fill:#43778E;}
	.st2{fill:none;stroke:#EC5F61;stroke-width:1.5;stroke-linecap:round;stroke-linejoin:round;stroke-miterlimit:10;}
	.st3{fill:#FFFFFF;}
	.st4{fill:#61A9BA;}
	.st5{opacity:0.13;}
	.st6{fill:#EC6170;}
	.st7{fill:#744152;}
	.st8{fill:#305066;}
	.st9{fill:#213443;}
	.st10{fill:#F5EAC8;}
	.st11{clip-path:url(#SVGID_2_);}
	.st12{fill:none;stroke:#000000;stroke-width:8.5445;stroke-miterlimit:10;}
	.st13{fill:none;stroke:#000000;stroke-width:9;stroke-miterlimit:10;}
	.st14{fill:none;stroke:#000000;stroke-width:9;stroke-linecap:round;stroke-linejoin:round;stroke-miterlimit:10;}
	.st15{fill:none;stroke:#000000;stroke-width:15;stroke-miterlimit:10;}
	.st16{fill:none;stroke:#EC5F61;stroke-width:8.544;stroke-linecap:round;stroke-linejoin:round;stroke-miterlimit:10;}
	.st17{fill:none;stroke:#000000;stroke-width:6;stroke-linecap:round;stroke-linejoin:round;stroke-miterlimit:10;}
	.st18{fill:none;stroke:#43778E;stroke-width:6;stroke-linecap:round;stroke-linejoin:round;stroke-miterlimit:10;}
	.st19{fill:none;stroke:#43778E;stroke-width:6;stroke-miterlimit:10;}
	.st20{fill:none;stroke:#61A9BA;stroke-width:6;stroke-miterlimit:10;}
	.st21{fill:none;stroke:#EC6170;stroke-width:6;stroke-linecap:round;stroke-linejoin:round;stroke-miterlimit:10;}
	.st22{fill:none;stroke:#61A9BA;stroke-width:6;stroke-linecap:round;stroke-linejoin:round;stroke-miterlimit:10;}
	.st23{fill:none;stroke:#EC6070;stroke-width:6;stroke-linecap:round;stroke-linejoin:round;stroke-miterlimit:10;}
	.st24{fill:none;stroke:#62AABB;stroke-width:6;stroke-miterlimit:10;}
	.st25{fill:none;}
	.st26{fill:none;stroke:#EC6170;stroke-width:9;stroke-linecap:round;stroke-linejoin:round;stroke-dasharray:0,15.7514;}
	.st27{fill:none;stroke:#EC6070;stroke-width:2;stroke-miterlimit:10;}
	.st28{fill:#C6C6C6;}
	.st29{fill:#FFFFFF;stroke:#FFFFFF;stroke-width:4;stroke-miterlimit:10;}
	.st30{fill:none;stroke:#FFFFFF;stroke-width:5;stroke-miterlimit:10;}
	.st31{fill:none;stroke:#FFFFFF;stroke-width:10;stroke-linecap:round;stroke-linejoin:round;stroke-miterlimit:10;}
	.st32{fill:none;stroke:#EC6170;stroke-width:12;stroke-miterlimit:10;}
	.st33{fill:none;stroke:#FFFFFF;stroke-width:10;stroke-miterlimit:10;}
	.st34{fill:none;stroke:#EC5F61;stroke-width:4;stroke-miterlimit:10;}
	.st35{fill:none;stroke:#EC5F61;stroke-width:12;stroke-miterlimit:10;}
	.st36{fill:#45778E;}
	.st37{fill:none;stroke:#FFFFFF;stroke-width:12;stroke-linecap:round;stroke-linejoin:round;stroke-dasharray:0,19.4173;}
	.st38{fill:#EC6170;stroke:#FFFFFF;stroke-width:10;stroke-miterlimit:10;}
	.st39{fill:#EC6070;}
	.st40{fill:none;stroke:#EC6170;stroke-width:6;stroke-miterlimit:10;}
	.st41{fill:none;stroke:#FFFFFF;stroke-width:6;stroke-miterlimit:10;}
	.st42{fill:none;stroke:#EC6170;stroke-width:10;stroke-miterlimit:10;}
	.st43{fill:none;stroke:#43778E;stroke-width:1.5;stroke-linecap:round;stroke-linejoin:round;stroke-miterlimit:10;}
	.st44{fill:#EC5F61;stroke:#FFFFFF;stroke-width:1.5;stroke-miterlimit:10;}
	.st45{fill:#020203;}
	.st46{clip-path:url(#SVGID_4_);fill:#020203;}
	.st47{clip-path:url(#SVGID_6_);fill:#020203;}
</style>
<g>
	<path class="st0" d="M42.9,52.4c-0.3,0-0.5,0-0.8-0.1l-0.1,0c0,0,0,0,0,0C31.2,49.6,23,38.8,23,27.2v-11c0-1.3,0.8-2.5,1.9-3
		l16.6-7.4c0.8-0.4,1.8-0.4,2.7,0l16.6,7.4c1.2,0.5,1.9,1.7,1.9,3v11c0,11.7-8.1,22.4-18.9,25.1l-0.1,0
		C43.4,52.4,43.1,52.4,42.9,52.4z M42.2,51.4l0.1,0c0.4,0.1,0.8,0.1,1.1,0l0.1,0c10.4-2.5,18.3-13,18.3-24.2v-11
		c0-0.9-0.6-1.8-1.4-2.2L43.8,6.6c-0.6-0.3-1.3-0.3-1.9,0L25.3,14c-0.9,0.4-1.4,1.2-1.4,2.2v11C23.9,38.4,31.8,48.9,42.2,51.4
		L42.2,51.4z"/>
	<path class="st1" d="M57.2,15.7L44,9.9c-0.8-0.3-1.6-0.3-2.4,0l-13.2,5.8c-1,0.5-1.7,1.5-1.7,2.7v8.8c0,9.6,6.5,18.6,15.3,21.2
		c0.5,0.1,1,0.1,1.5,0c8.8-2.6,15.3-11.6,15.3-21.2v-8.8C58.9,17.2,58.2,16.2,57.2,15.7z M52.9,24.3L40,37.2c-0.4,0.4-1,0.4-1.4,0
		l-5.7-5.7c-0.4-0.4-0.4-1,0-1.4l1.1-1.1c0.4-0.4,1-0.4,1.4,0l3.2,3.2c0.4,0.4,1,0.4,1.4,0l10.4-10.4c0.4-0.4,1-0.4,1.4,0l1.1,1.1
		C53.2,23.3,53.2,23.9,52.9,24.3z"/>
</g>
</svg>
