<?xml version="1.0" encoding="utf-8"?>
<!-- Generator: Adobe Illustrator 21.1.0, SVG Export Plug-In . SVG Version: 6.00 Build 0)  -->
<svg version="1.1" id="Layer_1" xmlns="http://www.w3.org/2000/svg" xmlns:xlink="http://www.w3.org/1999/xlink" x="0px" y="0px"
	 viewBox="0 0 85 62.4" style="enable-background:new 0 0 85 62.4;" xml:space="preserve">
<style type="text/css">
	.st0{fill:#EC5F61;}
	.st1{fill:#43778E;}
	.st2{fill:none;stroke:#EC5F61;stroke-width:1.5;stroke-linecap:round;stroke-linejoin:round;stroke-miterlimit:10;}
	.st3{fill:#FFFFFF;}
	.st4{fill:#61A9BA;}
	.st5{opacity:0.13;}
	.st6{fill:#EC6170;}
	.st7{fill:#744152;}
	.st8{fill:#305066;}
	.st9{fill:#213443;}
	.st10{fill:#F5EAC8;}
	.st11{clip-path:url(#SVGID_2_);}
	.st12{fill:none;stroke:#000000;stroke-width:8.5445;stroke-miterlimit:10;}
	.st13{fill:none;stroke:#000000;stroke-width:9;stroke-miterlimit:10;}
	.st14{fill:none;stroke:#000000;stroke-width:9;stroke-linecap:round;stroke-linejoin:round;stroke-miterlimit:10;}
	.st15{fill:none;stroke:#000000;stroke-width:15;stroke-miterlimit:10;}
	.st16{fill:none;stroke:#EC5F61;stroke-width:8.544;stroke-linecap:round;stroke-linejoin:round;stroke-miterlimit:10;}
	.st17{fill:none;stroke:#000000;stroke-width:6;stroke-linecap:round;stroke-linejoin:round;stroke-miterlimit:10;}
	.st18{fill:none;stroke:#43778E;stroke-width:6;stroke-linecap:round;stroke-linejoin:round;stroke-miterlimit:10;}
	.st19{fill:none;stroke:#43778E;stroke-width:6;stroke-miterlimit:10;}
	.st20{fill:none;stroke:#61A9BA;stroke-width:6;stroke-miterlimit:10;}
	.st21{fill:none;stroke:#EC6170;stroke-width:6;stroke-linecap:round;stroke-linejoin:round;stroke-miterlimit:10;}
	.st22{fill:none;stroke:#61A9BA;stroke-width:6;stroke-linecap:round;stroke-linejoin:round;stroke-miterlimit:10;}
	.st23{fill:none;stroke:#EC6070;stroke-width:6;stroke-linecap:round;stroke-linejoin:round;stroke-miterlimit:10;}
	.st24{fill:none;stroke:#62AABB;stroke-width:6;stroke-miterlimit:10;}
	.st25{fill:none;}
	.st26{fill:none;stroke:#EC6170;stroke-width:9;stroke-linecap:round;stroke-linejoin:round;stroke-dasharray:0,15.7514;}
	.st27{fill:none;stroke:#EC6070;stroke-width:2;stroke-miterlimit:10;}
	.st28{fill:#C6C6C6;}
	.st29{fill:#FFFFFF;stroke:#FFFFFF;stroke-width:4;stroke-miterlimit:10;}
	.st30{fill:none;stroke:#FFFFFF;stroke-width:5;stroke-miterlimit:10;}
	.st31{fill:none;stroke:#FFFFFF;stroke-width:10;stroke-linecap:round;stroke-linejoin:round;stroke-miterlimit:10;}
	.st32{fill:none;stroke:#EC6170;stroke-width:12;stroke-miterlimit:10;}
	.st33{fill:none;stroke:#FFFFFF;stroke-width:10;stroke-miterlimit:10;}
	.st34{fill:none;stroke:#EC5F61;stroke-width:4;stroke-miterlimit:10;}
	.st35{fill:none;stroke:#EC5F61;stroke-width:12;stroke-miterlimit:10;}
	.st36{fill:#45778E;}
	.st37{fill:none;stroke:#FFFFFF;stroke-width:12;stroke-linecap:round;stroke-linejoin:round;stroke-dasharray:0,19.4173;}
	.st38{fill:#EC6170;stroke:#FFFFFF;stroke-width:10;stroke-miterlimit:10;}
	.st39{fill:#EC6070;}
	.st40{fill:none;stroke:#EC6170;stroke-width:6;stroke-miterlimit:10;}
	.st41{fill:none;stroke:#FFFFFF;stroke-width:6;stroke-miterlimit:10;}
	.st42{fill:none;stroke:#EC6170;stroke-width:10;stroke-miterlimit:10;}
	.st43{fill:none;stroke:#43778E;stroke-width:1.5;stroke-linecap:round;stroke-linejoin:round;stroke-miterlimit:10;}
	.st44{fill:#EC5F61;stroke:#FFFFFF;stroke-width:1.5;stroke-miterlimit:10;}
	.st45{fill:#020203;}
	.st46{clip-path:url(#SVGID_4_);fill:#020203;}
	.st47{clip-path:url(#SVGID_6_);fill:#020203;}
</style>
<g>
	<path class="st0" d="M16.2,51c-2.7,0-5.2-1.1-6.9-3.2c-2.1-2.4-2.7-5.6-1.8-8.7c1.1-3.8,4.6-6.3,8.6-6.3c0.3,0,0.6-0.1,0.8-0.3
		l10.4-10.4c0.2-0.2,0.3-0.5,0.3-0.8c0.1-4.5,3.4-8.4,7.9-8.9c2.6-0.3,5.2,0.5,7.2,2.2c1.8,1.6,2.9,3.9,3.1,6.3c0,0.2,0,0.3,0,0.5
		c0,0.4,0.3,0.7,0.3,0.7l4.6,4.6c0.2,0.2,0.4,0.3,0.6,0.3l0,0c0.2,0,0.5-0.1,0.6-0.3l7.5-7.5c0.2-0.2,0.3-0.5,0.3-0.8
		c0-2.2,0.9-4.4,2.5-6.1c1.7-1.8,4-2.9,6.5-2.9c0.1,0,0.1,0,0.2,0c2.8,0,5.4,1.3,7.2,3.5c1.8,2.3,2.3,5.3,1.6,8.1
		c-1,3.8-4.6,6.5-8.6,6.5c-0.3,0-0.6,0.1-0.8,0.3l-7.5,7.4c-0.2,0.2-0.3,0.5-0.3,0.8c-0.1,4.7-3.7,8.7-8.4,9c-2.6,0.2-5-0.7-6.9-2.4
		c-1.8-1.7-2.9-4.1-2.9-6.7c0-0.1-0.1-0.5-0.4-0.8c0,0,0,0,0,0L37.5,31c-0.4-0.4-1.1-0.4-1.6,0L25.6,41.3c-0.2,0.2-0.3,0.5-0.3,0.8
		c-0.1,4.3-3.5,8.3-7.8,8.9l-0.1-0.4l0.1,0.4C17,51,16.6,51,16.2,51z M16.2,33.6c-3.7,0-6.9,2.3-8,5.8c-0.9,2.9-0.3,5.8,1.6,8
		c1.9,2.2,4.7,3.2,7.5,2.8l0,0c3.9-0.5,7.2-4.4,7.2-8.4c0-0.4,0.2-0.7,0.4-1l10.9-11c0.2-0.2,1.4-0.2,1.6,0l5.1,5.1
		c0.3,0.3,0.4,0.7,0.4,1.1c0,2.3,1,4.5,2.7,6.1c1.7,1.6,4,2.4,6.3,2.2c4.4-0.3,7.8-4.1,7.7-8.4c0-0.4,0.2-0.7,0.4-1l7.7-7.6
		c0,0,0.2-0.2,0.5-0.4c0.3-0.1,0.6-0.1,0.6-0.1c3.7,0,7.1-2.5,8-6c0.7-2.6,0.2-5.4-1.4-7.5c-1.6-2.1-4.1-3.3-6.7-3.2
		c-2.2,0-4.4,1-5.9,2.7c-1.5,1.6-2.3,3.7-2.3,5.8c0,0.4-0.2,0.7-0.4,1l-7.5,7.5c0,0-0.6,0.7-1.5,0.6c-0.3,0-0.8-0.3-1-0.5l-4.7-4.7
		c-0.3-0.3-0.5-0.7-0.5-1.1l0-0.1c0-2.4-1-4.7-2.8-6.2c-1.8-1.6-4.1-2.3-6.6-2c-4.2,0.5-7.3,4.2-7.3,8.4c0,0.4-0.2,0.7-0.4,1
		L17.3,33.1C17,33.4,16.6,33.6,16.2,33.6L16.2,33.6z"/>
	<path class="st1" d="M74.4,20.4c-0.8,2.5-3.3,4.1-6,3.9l-0.1,0c-0.7,0-1.3,0.2-1.8,0.6l-8.9,8.9c-0.4,0.4-0.6,0.9-0.5,1.4
		c0,0.3,0,0.5,0,0.8c0,3.2-2.6,5.9-5.9,5.9c-3.2,0-5.9-2.6-5.9-5.9c0-0.1,0-0.3,0-0.4c0-0.7-0.2-1.5-0.7-2l-5.5-5.5
		c-0.6-0.6-1.4-0.9-2.2-0.9c-0.1,0-0.6,0-0.8,0c-0.8,0-1.6,0.3-2.2,0.9L22.6,39.7c-0.4,0.4-0.6,1-0.6,1.6c0,0,0,0.1,0,0.2
		c0.2,2.7-1.4,5.2-4,6c-4.6,1.4-8.8-2.8-7.4-7.4c0.8-2.6,3.3-4.2,6-4c0,0,0,0,0,0c0.7,0.1,1.3-0.2,1.8-0.6L30,24
		c0.6-0.6,0.9-1.4,0.9-2.2c0-0.1,0-0.3,0-0.4c0-3.2,2.6-5.9,5.9-5.9c3.2,0,5.9,2.6,5.9,5.9c0,0.2,0,0.4,0,0.6
		c-0.1,0.7,0.2,1.3,0.6,1.8l5.8,5.8c0.5,0.5,1.1,0.7,1.7,0.6c0.2,0,0.4,0,0.6,0c0.2,0,0.3,0,0.5,0c0.7,0.1,1.4-0.2,2-0.7l8.7-8.7
		c0.4-0.4,0.7-1.1,0.6-1.7c0,0,0-0.1,0-0.1c-0.2-2.8,1.5-5.3,4.1-6.1C71.7,11.6,75.9,15.8,74.4,20.4z"/>
	<g>
		<circle class="st0" cx="68.9" cy="18.5" r="3.5"/>
		<path class="st3" d="M68.9,22.4c-2.1,0-3.9-1.7-3.9-3.9s1.7-3.9,3.9-3.9c2.1,0,3.9,1.7,3.9,3.9S71,22.4,68.9,22.4z M68.9,15.4
			c-1.7,0-3.1,1.4-3.1,3.1c0,1.7,1.4,3.1,3.1,3.1s3.1-1.4,3.1-3.1C72,16.8,70.6,15.4,68.9,15.4z"/>
	</g>
	<g>
		<circle class="st0" cx="51.3" cy="36.1" r="3.5"/>
		<path class="st3" d="M51.3,39.9c-2.1,0-3.9-1.7-3.9-3.9s1.7-3.9,3.9-3.9c2.1,0,3.9,1.7,3.9,3.9S53.4,39.9,51.3,39.9z M51.3,32.9
			c-1.7,0-3.1,1.4-3.1,3.1c0,1.7,1.4,3.1,3.1,3.1c1.7,0,3.1-1.4,3.1-3.1C54.4,34.3,53,32.9,51.3,32.9z"/>
	</g>
	<g>
		<circle class="st0" cx="36.6" cy="21.2" r="3.5"/>
		<path class="st3" d="M36.6,25.1c-2.1,0-3.9-1.7-3.9-3.9s1.7-3.9,3.9-3.9s3.9,1.7,3.9,3.9S38.8,25.1,36.6,25.1z M36.6,18.1
			c-1.7,0-3.1,1.4-3.1,3.1s1.4,3.1,3.1,3.1s3.1-1.4,3.1-3.1S38.4,18.1,36.6,18.1z"/>
	</g>
	<g>
		<circle class="st0" cx="16.2" cy="41.9" r="3.5"/>
		<path class="st3" d="M16.2,45.8c-2.1,0-3.9-1.7-3.9-3.9s1.7-3.9,3.9-3.9s3.9,1.7,3.9,3.9S18.4,45.8,16.2,45.8z M16.2,38.8
			c-1.7,0-3.1,1.4-3.1,3.1s1.4,3.1,3.1,3.1s3.1-1.4,3.1-3.1S17.9,38.8,16.2,38.8z"/>
	</g>
</g>
</svg>
