<?xml version="1.0" encoding="utf-8"?>
<!-- Generator: Adobe Illustrator 21.1.0, SVG Export Plug-In . SVG Version: 6.00 Build 0)  -->
<svg version="1.1" id="Layer_1" xmlns="http://www.w3.org/2000/svg" xmlns:xlink="http://www.w3.org/1999/xlink" x="0px" y="0px"
	 viewBox="0 0 85 62.4" style="enable-background:new 0 0 85 62.4;" xml:space="preserve">
<style type="text/css">
	.st0{fill:#EC5F61;}
	.st1{fill:#43778E;}
	.st2{fill:none;stroke:#EC5F61;stroke-width:1.5;stroke-linecap:round;stroke-linejoin:round;stroke-miterlimit:10;}
	.st3{fill:#FFFFFF;}
	.st4{fill:#61A9BA;}
	.st5{opacity:0.13;}
	.st6{fill:#EC6170;}
	.st7{fill:#744152;}
	.st8{fill:#305066;}
	.st9{fill:#213443;}
	.st10{fill:#F5EAC8;}
	.st11{clip-path:url(#SVGID_2_);}
	.st12{fill:none;stroke:#000000;stroke-width:8.5445;stroke-miterlimit:10;}
	.st13{fill:none;stroke:#000000;stroke-width:9;stroke-miterlimit:10;}
	.st14{fill:none;stroke:#000000;stroke-width:9;stroke-linecap:round;stroke-linejoin:round;stroke-miterlimit:10;}
	.st15{fill:none;stroke:#000000;stroke-width:15;stroke-miterlimit:10;}
	.st16{fill:none;stroke:#EC5F61;stroke-width:8.544;stroke-linecap:round;stroke-linejoin:round;stroke-miterlimit:10;}
	.st17{fill:none;stroke:#000000;stroke-width:6;stroke-linecap:round;stroke-linejoin:round;stroke-miterlimit:10;}
	.st18{fill:none;stroke:#43778E;stroke-width:6;stroke-linecap:round;stroke-linejoin:round;stroke-miterlimit:10;}
	.st19{fill:none;stroke:#43778E;stroke-width:6;stroke-miterlimit:10;}
	.st20{fill:none;stroke:#61A9BA;stroke-width:6;stroke-miterlimit:10;}
	.st21{fill:none;stroke:#EC6170;stroke-width:6;stroke-linecap:round;stroke-linejoin:round;stroke-miterlimit:10;}
	.st22{fill:none;stroke:#61A9BA;stroke-width:6;stroke-linecap:round;stroke-linejoin:round;stroke-miterlimit:10;}
	.st23{fill:none;stroke:#EC6070;stroke-width:6;stroke-linecap:round;stroke-linejoin:round;stroke-miterlimit:10;}
	.st24{fill:none;stroke:#62AABB;stroke-width:6;stroke-miterlimit:10;}
	.st25{fill:none;}
	.st26{fill:none;stroke:#EC6170;stroke-width:9;stroke-linecap:round;stroke-linejoin:round;stroke-dasharray:0,15.7514;}
	.st27{fill:none;stroke:#EC6070;stroke-width:2;stroke-miterlimit:10;}
	.st28{fill:#C6C6C6;}
	.st29{fill:#FFFFFF;stroke:#FFFFFF;stroke-width:4;stroke-miterlimit:10;}
	.st30{fill:none;stroke:#FFFFFF;stroke-width:5;stroke-miterlimit:10;}
	.st31{fill:none;stroke:#FFFFFF;stroke-width:10;stroke-linecap:round;stroke-linejoin:round;stroke-miterlimit:10;}
	.st32{fill:none;stroke:#EC6170;stroke-width:12;stroke-miterlimit:10;}
	.st33{fill:none;stroke:#FFFFFF;stroke-width:10;stroke-miterlimit:10;}
	.st34{fill:none;stroke:#EC5F61;stroke-width:4;stroke-miterlimit:10;}
	.st35{fill:none;stroke:#EC5F61;stroke-width:12;stroke-miterlimit:10;}
	.st36{fill:#45778E;}
	.st37{fill:none;stroke:#FFFFFF;stroke-width:12;stroke-linecap:round;stroke-linejoin:round;stroke-dasharray:0,19.4173;}
	.st38{fill:#EC6170;stroke:#FFFFFF;stroke-width:10;stroke-miterlimit:10;}
	.st39{fill:#EC6070;}
	.st40{fill:none;stroke:#EC6170;stroke-width:6;stroke-miterlimit:10;}
	.st41{fill:none;stroke:#FFFFFF;stroke-width:6;stroke-miterlimit:10;}
	.st42{fill:none;stroke:#EC6170;stroke-width:10;stroke-miterlimit:10;}
	.st43{fill:none;stroke:#43778E;stroke-width:1.5;stroke-linecap:round;stroke-linejoin:round;stroke-miterlimit:10;}
	.st44{fill:#EC5F61;stroke:#FFFFFF;stroke-width:1.5;stroke-miterlimit:10;}
	.st45{fill:#020203;}
	.st46{clip-path:url(#SVGID_4_);fill:#020203;}
	.st47{clip-path:url(#SVGID_6_);fill:#020203;}
</style>
<g>
	<path class="st1" d="M31.8,45.3c1.8,0,3.3,1.5,3.3,3.3c0,1.8-1.5,3.3-3.3,3.3c-1.8,0-3.3-1.5-3.3-3.3C28.5,46.7,30,45.3,31.8,45.3
		 M31.8,44.4c-2.3,0-4.1,1.9-4.1,4.2c0,2.3,1.9,4.2,4.1,4.2s4.2-1.9,4.2-4.2C36,46.3,34.1,44.4,31.8,44.4L31.8,44.4z"/>
	<path class="st1" d="M52.6,45.3c1.8,0,3.3,1.5,3.3,3.3c0,1.8-1.5,3.3-3.3,3.3c-1.8,0-3.3-1.5-3.3-3.3
		C49.3,46.7,50.8,45.3,52.6,45.3 M52.6,44.4c-2.3,0-4.1,1.9-4.1,4.2c0,2.3,1.9,4.2,4.1,4.2c2.3,0,4.2-1.9,4.2-4.2
		C56.8,46.3,54.9,44.4,52.6,44.4L52.6,44.4z"/>
	<path class="st1" d="M32.2,37.6l0.1-0.2l1.5-2.7c0.2-0.4,0.7-0.7,1.2-0.7h14.7c1.6,0,2.9-0.9,3.6-2.1l7.2-13.1
		c0.5-0.8,0.2-1.9-0.7-2.3L59.1,16c-0.8-0.4-1.8-0.1-2.2,0.6l-1.5,2.7c0,0-3.8,6.9-5.2,9.5c-0.3,0.6-0.9,0.9-1.6,0.9l-12.5,0
		c-0.6,0-1.2-0.4-1.5-0.9c-0.2-0.5-0.4-0.9-0.4-0.9l-4-8.5l-2-4.2l-1.4-2.9c-0.3-0.7-1.1-1.2-1.9-1.2h-4.1c-0.7,0-1.3,0.6-1.3,1.3v2
		c0,0.4,0.4,0.8,0.8,0.8h2.1c0.8,0,1.5,0.5,1.8,1.2l6.4,13.5c0.3,0.7,0.3,1.5-0.1,2.2l-2.2,4c-0.4,0.7-0.6,1.5-0.5,2.3
		c0.2,2.2,2.1,3.8,4.3,3.8l23.2,0c0.9,0,1.7-0.7,1.7-1.7v-1c0-0.8-0.7-1.5-1.5-1.5H32.7C32.4,38.2,32.2,37.9,32.2,37.6z"/>
	<path class="st0" d="M50.5,13.2l-5.1-0.4c-0.2,0-0.4-0.1-0.5-0.3l-2-4.7c-0.2-0.5-0.8-0.5-1,0l-2,4.7c-0.1,0.2-0.3,0.3-0.5,0.3
		l-5.1,0.4c-0.5,0-0.7,0.7-0.3,1l3.9,3.4c0.2,0.1,0.2,0.3,0.2,0.6l-1.2,5c-0.1,0.5,0.4,0.9,0.8,0.6l4.4-2.7c0.2-0.1,0.4-0.1,0.6,0
		l4.4,2.7c0.4,0.3,0.9-0.1,0.8-0.6l-1.2-5c0-0.2,0-0.4,0.2-0.6l3.9-3.4C51.2,13.9,51,13.2,50.5,13.2z M42.1,19.3L40,20.6
		c-0.4,0.3-0.9-0.1-0.8-0.6l0.6-2.4c0-0.2,0-0.4-0.2-0.6l-1.9-1.6c-0.4-0.3-0.2-0.9,0.3-1l2.5-0.2c0.2,0,0.4-0.1,0.5-0.3l1-2.3
		c0.2-0.5,0.8-0.5,1,0l1,2.3c0.1,0.2,0.3,0.3,0.5,0.3l2.5,0.2c0.5,0,0.7,0.7,0.3,1L45.2,17c-0.2,0.1-0.2,0.3-0.2,0.6l0.6,2.4
		c0.1,0.5-0.4,0.9-0.8,0.6l-2.1-1.3C42.5,19.2,42.3,19.2,42.1,19.3z"/>
	<path class="st0" d="M19,22H2.7c-0.2,0-0.4-0.2-0.4-0.4s0.2-0.4,0.4-0.4H19c0.2,0,0.4,0.2,0.4,0.4S19.3,22,19,22z"/>
	<path class="st0" d="M21.6,25.6H10.5c-0.2,0-0.4-0.2-0.4-0.4s0.2-0.4,0.4-0.4h11.2c0.2,0,0.4,0.2,0.4,0.4S21.9,25.6,21.6,25.6z"/>
	<path class="st0" d="M23.9,29.2h-5.8c-0.2,0-0.4-0.2-0.4-0.4s0.2-0.4,0.4-0.4h5.8c0.2,0,0.4,0.2,0.4,0.4S24.1,29.2,23.9,29.2z"/>
</g>
</svg>
