<?xml version="1.0" encoding="utf-8"?>
<!-- Generator: Adobe Illustrator 21.1.0, SVG Export Plug-In . SVG Version: 6.00 Build 0)  -->
<svg version="1.1" id="Layer_1" xmlns="http://www.w3.org/2000/svg" xmlns:xlink="http://www.w3.org/1999/xlink" x="0px" y="0px"
	 viewBox="0 0 387.6 393.7" style="enable-background:new 0 0 387.6 393.7;" xml:space="preserve">
<style type="text/css">
	.st0{fill:#EC5F61;}
	.st1{fill:#43778E;}
	.st2{fill:none;stroke:#EC5F61;stroke-width:1.5;stroke-linecap:round;stroke-linejoin:round;stroke-miterlimit:10;}
	.st3{fill:#FFFFFF;}
	.st4{fill:#61A9BA;}
	.st5{opacity:0.13;}
	.st6{fill:#EC6170;}
	.st7{fill:#744152;}
	.st8{fill:#305066;}
	.st9{fill:#213443;}
	.st10{fill:#F5EAC8;}
	.st11{clip-path:url(#SVGID_2_);}
	.st12{clip-path:url(#SVGID_4_);}
	.st13{fill:none;stroke:#000000;stroke-width:8.5445;stroke-miterlimit:10;}
	.st14{fill:none;stroke:#000000;stroke-width:9;stroke-miterlimit:10;}
	.st15{fill:none;stroke:#000000;stroke-width:9;stroke-linecap:round;stroke-linejoin:round;stroke-miterlimit:10;}
	.st16{fill:none;stroke:#000000;stroke-width:15;stroke-miterlimit:10;}
	.st17{fill:none;stroke:#EC5F61;stroke-width:8.544;stroke-linecap:round;stroke-linejoin:round;stroke-miterlimit:10;}
	.st18{fill:none;stroke:#000000;stroke-width:6;stroke-linecap:round;stroke-linejoin:round;stroke-miterlimit:10;}
	.st19{fill:none;stroke:#43778E;stroke-width:6;stroke-linecap:round;stroke-linejoin:round;stroke-miterlimit:10;}
	.st20{fill:none;stroke:#43778E;stroke-width:6;stroke-miterlimit:10;}
	.st21{fill:none;stroke:#61A9BA;stroke-width:6;stroke-miterlimit:10;}
	.st22{fill:none;stroke:#EC6170;stroke-width:6;stroke-linecap:round;stroke-linejoin:round;stroke-miterlimit:10;}
	.st23{fill:none;stroke:#61A9BA;stroke-width:6;stroke-linecap:round;stroke-linejoin:round;stroke-miterlimit:10;}
	.st24{fill:none;stroke:#EC6070;stroke-width:6;stroke-linecap:round;stroke-linejoin:round;stroke-miterlimit:10;}
	.st25{fill:none;stroke:#62AABB;stroke-width:6;stroke-miterlimit:10;}
	.st26{fill:none;}
	.st27{fill:none;stroke:#EC6170;stroke-width:9;stroke-linecap:round;stroke-linejoin:round;stroke-dasharray:0,15.7514;}
	.st28{fill:none;stroke:#EC6070;stroke-width:2;stroke-miterlimit:10;}
	.st29{fill:#C6C6C6;}
	.st30{fill:#FFFFFF;stroke:#FFFFFF;stroke-width:4;stroke-miterlimit:10;}
	.st31{fill:none;stroke:#FFFFFF;stroke-width:5;stroke-miterlimit:10;}
	.st32{fill:none;stroke:#FFFFFF;stroke-width:10;stroke-linecap:round;stroke-linejoin:round;stroke-miterlimit:10;}
	.st33{fill:none;stroke:#EC6170;stroke-width:12;stroke-miterlimit:10;}
	.st34{fill:none;stroke:#FFFFFF;stroke-width:10;stroke-miterlimit:10;}
	.st35{fill:none;stroke:#EC5F61;stroke-width:4;stroke-miterlimit:10;}
	.st36{fill:none;stroke:#EC5F61;stroke-width:12;stroke-miterlimit:10;}
	.st37{fill:#45778E;}
	.st38{fill:none;stroke:#FFFFFF;stroke-width:12;stroke-linecap:round;stroke-linejoin:round;stroke-dasharray:0,19.4173;}
	.st39{fill:#EC6170;stroke:#FFFFFF;stroke-width:10;stroke-miterlimit:10;}
	.st40{fill:#EC6070;}
	.st41{fill:none;stroke:#EC6170;stroke-width:6;stroke-miterlimit:10;}
	.st42{fill:none;stroke:#FFFFFF;stroke-width:6;stroke-miterlimit:10;}
	.st43{fill:none;stroke:#EC6170;stroke-width:10;stroke-miterlimit:10;}
	.st44{fill:none;stroke:#43778E;stroke-width:1.5;stroke-linecap:round;stroke-linejoin:round;stroke-miterlimit:10;}
	.st45{fill:#EC5F61;stroke:#FFFFFF;stroke-width:1.5;stroke-miterlimit:10;}
	.st46{fill:#020203;}
	.st47{clip-path:url(#SVGID_6_);fill:#020203;}
	.st48{clip-path:url(#SVGID_8_);fill:#020203;}
</style>
<path class="st26" d="M191.6,169.8c-13.1,1-23.8,11.7-24.8,24.8c-1.3,16.7,12.5,30.5,29.2,29.2c13.1-1,23.8-11.7,24.8-24.8
	C222.1,182.4,208.3,168.5,191.6,169.8z"/>
<path class="st26" d="M174.6,112.5c-0.3,0.7-0.6,1.4-0.7,2.2c4.1-2,7.7-3.5,10.6-4.1c1.4-0.3,2.5-1.4,2.5-2.8c0.1-1.6-1-2.8-2.4-3.1
	C178.4,106.7,175.7,110,174.6,112.5z"/>
<path class="st26" d="M193.8,164c-18.1,0-32.9,14.7-32.9,32.9c0,18.1,14.7,32.9,32.9,32.9s32.9-14.7,32.9-32.9
	C226.7,178.7,211.9,164,193.8,164z"/>
<path class="st26" d="M364.8,191.8c2-3.7,3.8-7.5,5.6-11.3C368.5,184.3,366.8,188.1,364.8,191.8z"/>
<path class="st26" d="M372.2,213.1c-1.9-3.7-3.6-7.6-5.6-11.3C368.6,205.6,370.4,209.4,372.2,213.1z"/>
<path class="st26" d="M174.6,112.5c-0.3,0.7-0.6,1.4-0.7,2.2c4.1-2,7.7-3.5,10.6-4.1c1.4-0.3,2.5-1.4,2.5-2.8c0.1-1.6-1-2.8-2.4-3.1
	C178.4,106.7,175.7,110,174.6,112.5z"/>
<path class="st26" d="M174.6,112.5c-0.3,0.7-0.6,1.4-0.7,2.2c4.1-2,7.7-3.5,10.6-4.1c1.4-0.3,2.5-1.4,2.5-2.8c0.1-1.6-1-2.8-2.4-3.1
	C178.4,106.7,175.7,110,174.6,112.5z"/>
<path class="st26" d="M174.6,112.5c-0.3,0.7-0.6,1.4-0.7,2.2c4.1-2,7.7-3.5,10.6-4.1c1.4-0.3,2.5-1.4,2.5-2.8c0.1-1.6-1-2.8-2.4-3.1
	C178.4,106.7,175.7,110,174.6,112.5z"/>
<path class="st26" d="M364.8,191.8c2-3.7,3.8-7.5,5.6-11.3C368.5,184.3,366.8,188.1,364.8,191.8z"/>
<path class="st26" d="M174.6,112.5c-0.3,0.7-0.6,1.4-0.7,2.2c4.1-2,7.7-3.5,10.6-4.1c1.4-0.3,2.5-1.4,2.5-2.8c0.1-1.6-1-2.8-2.4-3.1
	C178.4,106.7,175.7,110,174.6,112.5z"/>
<path class="st26" d="M372.2,213.1c-1.9-3.7-3.6-7.6-5.6-11.3C368.6,205.6,370.4,209.4,372.2,213.1z"/>
<path class="st26" d="M364.8,191.8c2-3.7,3.8-7.5,5.6-11.3C368.5,184.3,366.8,188.1,364.8,191.8z"/>
<path class="st26" d="M174.6,112.5c-0.3,0.7-0.6,1.4-0.7,2.2c4.1-2,7.7-3.5,10.6-4.1c1.4-0.3,2.5-1.4,2.5-2.8c0.1-1.6-1-2.8-2.4-3.1
	C178.4,106.7,175.7,110,174.6,112.5z"/>
<path class="st26" d="M372.2,213.1c-1.9-3.7-3.6-7.6-5.6-11.3C368.6,205.6,370.4,209.4,372.2,213.1z"/>
<path class="st26" d="M193.8,164c-18.1,0-32.9,14.7-32.9,32.9c0,18.1,14.7,32.9,32.9,32.9s32.9-14.7,32.9-32.9
	C226.7,178.7,211.9,164,193.8,164z"/>
<path class="st26" d="M364.8,191.8c2-3.7,3.8-7.5,5.6-11.3C368.5,184.3,366.8,188.1,364.8,191.8z"/>
<path class="st26" d="M193.8,164c-18.1,0-32.9,14.7-32.9,32.9c0,18.1,14.7,32.9,32.9,32.9s32.9-14.7,32.9-32.9
	C226.7,178.7,211.9,164,193.8,164z"/>
<path class="st26" d="M372.2,213.1c-1.9-3.7-3.6-7.6-5.6-11.3C368.6,205.6,370.4,209.4,372.2,213.1z"/>
<path class="st26" d="M174.6,112.5c-0.3,0.7-0.6,1.4-0.7,2.2c4.1-2,7.7-3.5,10.6-4.1c1.4-0.3,2.5-1.4,2.5-2.8c0.1-1.6-1-2.8-2.4-3.1
	C178.4,106.7,175.7,110,174.6,112.5z"/>
<path class="st26" d="M193.8,164c-18.1,0-32.9,14.7-32.9,32.9c0,18.1,14.7,32.9,32.9,32.9s32.9-14.7,32.9-32.9
	C226.7,178.7,211.9,164,193.8,164z"/>
<path class="st26" d="M174.6,112.5c-0.3,0.7-0.6,1.4-0.7,2.2c4.1-2,7.7-3.5,10.6-4.1c1.4-0.3,2.5-1.4,2.5-2.8c0.1-1.6-1-2.8-2.4-3.1
	C178.4,106.7,175.7,110,174.6,112.5z"/>
<path class="st26" d="M364.8,191.8c2-3.7,3.8-7.5,5.6-11.3C368.5,184.3,366.8,188.1,364.8,191.8z"/>
<path class="st26" d="M372.2,213.1c-1.9-3.7-3.6-7.6-5.6-11.3C368.6,205.6,370.4,209.4,372.2,213.1z"/>
<path class="st26" d="M364.8,191.8c2-3.7,3.8-7.5,5.6-11.3C368.5,184.3,366.8,188.1,364.8,191.8z"/>
<path class="st26" d="M174.6,112.5c-0.3,0.7-0.6,1.4-0.7,2.2c4.1-2,7.7-3.5,10.6-4.1c1.4-0.3,2.5-1.4,2.5-2.8c0.1-1.6-1-2.8-2.4-3.1
	C178.4,106.7,175.7,110,174.6,112.5z"/>
<path class="st26" d="M22.9,201.8h85.1c6,13.6,20.8,23.9,35.8,20.3c9.3,18.2,28.2,30.7,50,30.7c18.7,0,36-9.2,46.5-24.7
	c1.5-2.3,0.9-5.4-1.3-6.9c-2.3-1.5-5.4-0.9-6.9,1.3c-8.6,12.7-22.9,20.3-38.2,20.3c-25.4,0-46-20.6-46-46c0-2.8-2.2-5-5-5
	c-0.2,0-0.3,0-0.5,0.1c-0.2,0-0.3-0.1-0.5-0.1H20.8h-5.5v10H22.9z"/>
<path class="st26" d="M193.8,164c-18.1,0-32.9,14.7-32.9,32.9c0,18.1,14.7,32.9,32.9,32.9s32.9-14.7,32.9-32.9
	C226.7,178.7,211.9,164,193.8,164z"/>
<path class="st26" d="M372.2,213.1c-1.9-3.7-3.6-7.6-5.6-11.3C368.6,205.6,370.4,209.4,372.2,213.1z"/>
<path class="st26" d="M174.6,112.5c-0.3,0.7-0.6,1.4-0.7,2.2c4.1-2,7.7-3.5,10.6-4.1c1.4-0.3,2.5-1.4,2.5-2.8c0.1-1.6-1-2.8-2.4-3.1
	C178.4,106.7,175.7,110,174.6,112.5z"/>
<path class="st26" d="M364.8,191.8c2-3.7,3.8-7.5,5.6-11.3C368.5,184.3,366.8,188.1,364.8,191.8z"/>
<path class="st26" d="M372.2,213.1c-1.9-3.7-3.6-7.6-5.6-11.3C368.6,205.6,370.4,209.4,372.2,213.1z"/>
<path class="st26" d="M193.8,164c-18.1,0-32.9,14.7-32.9,32.9c0,18.1,14.7,32.9,32.9,32.9s32.9-14.7,32.9-32.9
	C226.7,178.7,211.9,164,193.8,164z"/>
<g>
	<path class="st0" d="M193.8,219.1c-12.3,0-22.3-10-22.3-22.3s10-22.3,22.3-22.3s22.3,10,22.3,22.3S206.1,219.1,193.8,219.1z
		 M193.8,186.5c-5.7,0-10.3,4.6-10.3,10.3s4.6,10.3,10.3,10.3c5.7,0,10.3-4.6,10.3-10.3S199.5,186.5,193.8,186.5z"/>
	<path class="st0" d="M387.4,207.6C387.4,207.6,387.4,207.6,387.4,207.6c0.1-0.4,0.2-0.9,0.2-1.4c0-0.1,0-0.2,0-0.3
		c-0.2-2.2-2-4-4.2-4l0,0c0,0,0,0,0,0c0,0,0,0,0,0s0,0,0,0h-6.4v0h-10.2H245.8c-0.2,0-0.3,0-0.5-0.1c-0.2,0-0.3,0.1-0.5,0.1
		c-2.8,0-5-2.2-5-5c0-25.4-20.6-46-46-46c-15.3,0-29.6,7.6-38.2,20.3c-1.5,2.3-4.6,2.9-6.9,1.3c-2.3-1.5-2.9-4.7-1.3-6.9
		c10.4-15.5,27.8-24.7,46.5-24.7c25.8,0,47.5,17.5,54,41.2c0.1,0.5,0.2,0.9,0.4,1.4c0,0,0,0,0,0c0.1,0.5,0.2,1,0.3,1.5
		c0.1,0.4,0.2,0.8,0.2,1.2c0.1,0.3,0.2,1.1,0.3,1.4c0.5,2.4,2.6,4.2,5.1,4.2h0.3h1.9v0h108.4h7.5v0h2.5h6.4c0,0,0,0,0,0s0,0,0,0l0,0
		c2.4,0,4.3-2,4.3-4.3c0-0.5-0.1-0.9-0.2-1.4c0,0,0,0,0,0h0c-0.4-1.3-1.1-2.9-2.5-4.8c-0.2-0.3-0.4-0.5-0.6-0.8c0,0,0,0,0,0
		c-0.7-0.8-1.5-1.8-2.6-3.1l-0.7-0.7c0,0,0,0,0,0L330.1,128c-1-1-2.5-1.2-3.7-0.4c-0.3,0.2-27.9,16.9-46.9,20.1
		c-18.5,3.1-23.8-0.8-32.6-7.4l-0.1-0.1c-5.9-4.4-13.9-7.9-23.7-10.6c-4.7-1.3-11.7-2.3-19.9-3c-0.9-0.1-1.8-0.1-2.7-0.2
		c-6.3-0.5-12.3-0.9-16.7-3.2c-2.9-1.5-5.1-5.1-3.7-8.2c1-2.2,3.6-3.9,7.5-4.9c9.7-2.6,26.5,1.2,37.7,3.8c3.5,0.8,6.5,1.5,8.8,1.9
		c1.3,0.2,2.7-0.4,3.2-1.6c1-1.9-0.2-4-2.2-4.4c-2.1-0.4-5.1-1-8.5-1.8c-12.4-2.8-29.4-6.7-40.5-3.7c-0.5,0.1-0.9,0.3-1.4,0.4
		c-0.4-0.1-0.8-0.1-1.3,0c-11.2,2.4-31.6,15.6-45.1,24.3c-3.9,2.5-7.3,4.7-9.2,5.8c-3.5,2-9.7,4.8-12.9,1.1c-1.7-2-3.2-5.5,4.1-12.5
		c8.9-8.7,30.3-24.7,42.3-32.9c0.8-0.6,1.7-1.2,2.8-2c5.6-4.1,15.1-10.9,23.2-10.9c0,0,0,0,0.1,0c3.8,0,7.7,0.6,11.1,1.2
		c1.6,0.3,3.2,0.5,4.7,0.7c2.6,0.3,4.8,0.5,7.1,0.6c4,0.3,8.5,0.6,16.2,1.8c11.9,1.9,24.6,4.5,36.8,7.4c0.9,0.2,2.1,0.5,3.5,0.9
		c5.6,1.4,14.1,3.6,18.2,3.9c0.1,0,0.2,0,0.2,0l4.5,0h0c0.7,0,1.4-0.2,1.9-0.7c1.4-1.2,1.4-3.3,0.2-4.4L211.4,7.3
		c-4.7-4.7-11-7.3-17.6-7.3s-12.9,2.6-17.6,7.3L15.3,168.2l-4.5,4.5v0l-3.6,3.6c0,0,0,0,0,0L6,177.5c-0.1,0.1-0.1,0.1-0.1,0.2
		c-0.9,0.9-1.7,1.9-2.5,2.9c-0.2,0.3-0.4,0.6-0.6,0.8c-0.8,1-1.3,1.9-1.7,2.7c0,0,0,0,0,0c-0.1,0.2-0.2,0.4-0.3,0.6
		c0,0,0,0.1-0.1,0.1c-0.1,0.1-0.1,0.3-0.2,0.4c0,0.1,0,0.1-0.1,0.2c0,0.1-0.1,0.2-0.1,0.3c0,0.1-0.1,0.2-0.1,0.2c0,0,0,0.1,0,0.1h0
		h0l0,0C0.1,186.6,0,187,0,187.5c0,2.4,1.9,4.3,4.3,4.3c0,0,0,0,0,0c0,0,0,0,0,0s0,0,0,0h6.4v0h4.5h5.5h120.8c0.2,0,0.3,0,0.5,0.1
		c0.2,0,0.3-0.1,0.5-0.1c2.8,0,5,2.2,5,5c0,25.4,20.6,46,46,46c15.3,0,29.6-7.6,38.2-20.3c1.5-2.3,4.6-2.9,6.9-1.3
		c2.3,1.5,2.9,4.7,1.3,6.9c-10.4,15.5-27.8,24.7-46.5,24.7c-21.8,0-40.7-12.5-50-30.7c-2.3-4.5-4-9.4-5-14.6
		c-0.1-0.3-0.2-1.1-0.3-1.4c-0.5-2.4-2.6-4.2-5.1-4.3H133h-25.1H22.9h-7.5h-2.5H6.4c0,0,0,0,0,0s0,0,0,0c-2.4,0-4.3,1.9-4.3,4.3
		c0,0.5,0.1,0.9,0.2,1.4l0,0h0c0.4,1.3,1.1,2.9,2.5,4.8c0.8,1,1.7,2.2,3.2,3.9l1.2,1.2c0,0,0,0,0,0l3.6,3.6l2.5,2.5l42.2,42.2
		c1,1,2.5,1.2,3.7,0.4c0.3-0.2,27.9-16.9,46.9-20.1c18.5-3.1,23.8,0.8,32.6,7.4l0.1,0.1c5.9,4.4,13.9,7.9,23.7,10.6
		c4.7,1.3,11.8,2.3,19.9,3c0.9,0.1,1.8,0.1,2.7,0.2c6.3,0.5,12.3,0.9,16.7,3.2c2.9,1.5,5.1,5.1,3.7,8.2c-1,2.2-3.6,3.9-7.5,4.9
		c-9.7,2.6-26.5-1.2-37.7-3.8c-3.5-0.8-6.5-1.5-8.8-1.9c-1.3-0.2-2.7,0.4-3.3,1.6c-1,1.9,0.2,4,2.2,4.4c2.1,0.4,5.1,1,8.5,1.8
		c9.2,2.1,21,4.8,31,4.8c3.4,0,6.7-0.3,9.5-1.1c0.5-0.1,0.9-0.3,1.4-0.4c0.4,0.1,0.8,0.1,1.3,0c11.2-2.4,31.6-15.6,45.1-24.3
		c3.9-2.5,7.3-4.7,9.2-5.8c3.5-2,9.7-4.8,12.9-1.1c1.7,2,3.2,5.5-4.1,12.5c-8.9,8.7-30.3,24.7-42.3,32.9c-0.8,0.6-1.7,1.2-2.8,2
		c-5.6,4.1-15.1,10.9-23.2,10.9c0,0,0,0-0.1,0c-3.8,0-7.7-0.6-11.1-1.2c-1.6-0.3-3.2-0.5-4.7-0.7c-2.6-0.3-4.8-0.5-7.1-0.6
		c-4-0.3-8.5-0.6-16.2-1.8c-11.9-1.9-24.6-4.5-36.8-7.4c-0.9-0.2-2.1-0.5-3.5-0.9c-5.6-1.4-14.2-3.6-18.2-3.9c-0.1,0-0.2,0-0.2,0
		l-4.5,0h0c-0.7,0-1.4,0.2-1.9,0.7c-1.4,1.3-1.4,3.3-0.2,4.4l81.7,81.7c4.7,4.7,11,7.3,17.6,7.3s12.9-2.6,17.6-7.3L376.8,221v0
		l3.6-3.6c0,0,0,0,0,0l1.2-1.2c0,0,0,0,0,0c1-1,1.9-2.1,2.7-3.2c0.2-0.2,0.4-0.5,0.5-0.7c0.8-1,1.3-1.9,1.7-2.7c0,0,0,0,0,0
		c0.1-0.2,0.2-0.4,0.3-0.6c0,0,0-0.1,0.1-0.1c0.1-0.1,0.1-0.3,0.2-0.4c0-0.1,0-0.1,0.1-0.2c0-0.1,0.1-0.2,0.1-0.3
		c0-0.1,0.1-0.2,0.1-0.2C387.3,207.6,387.4,207.6,387.4,207.6L387.4,207.6L387.4,207.6z M370.4,180.6c-1.9,3.7-3.6,7.6-5.6,11.3
		C366.8,188.1,368.5,184.3,370.4,180.6z M187,107.6c0,0,0,0.1,0,0.1c0,0.5-0.2,0.9-0.4,1.3C186.8,108.6,187,108.1,187,107.6z
		 M173.9,114.7c0.1-0.1,0.2-0.1,0.4-0.2C174.1,114.6,174,114.6,173.9,114.7L173.9,114.7z M193.8,229.7c-18.1,0-32.9-14.7-32.9-32.9
		c0-18.1,14.7-32.9,32.9-32.9s32.9,14.7,32.9,32.9C226.7,215,211.9,229.7,193.8,229.7z M366.6,201.8c2,3.7,3.8,7.5,5.6,11.3
		C370.4,209.4,368.6,205.6,366.6,201.8z"/>
</g>
</svg>
